<svg width="301" height="261" viewBox="0 0 301 261" fill="none" xmlns="http://www.w3.org/2000/svg">
<g clip-path="url(#clip0_263_1793)">
<g filter="url(#filter0_b_263_1793)">
<rect width="301" height="261" rx="20" fill="black" fill-opacity="0.31"/>
<rect x="0.5" y="0.5" width="300" height="260" rx="19.5" stroke="url(#paint0_linear_263_1793)"/>
</g>
<g filter="url(#filter1_d_263_1793)">
<path d="M80 0H222C222 4.97056 217.971 9 213 9H89C84.0294 9 80 4.97056 80 0Z" fill="url(#paint1_linear_263_1793)"/>
</g>
<g filter="url(#filter2_b_263_1793)">
<rect width="181.289" height="168.225" rx="17.791" transform="matrix(0.902585 0.430511 -0.707107 0.707107 128.953 32)" fill="white" fill-opacity="0.08"/>
</g>
<path fill-rule="evenodd" clip-rule="evenodd" d="M226.416 89.6242C224.764 88.8363 222.376 89.2467 221.081 90.5409L210.771 100.851C209.477 102.146 209.767 103.833 211.419 104.621L224.58 110.899C226.231 111.687 228.62 111.276 229.914 109.982L240.224 99.6716C241.519 98.3774 241.229 96.6896 239.577 95.9016L226.416 89.6242ZM133.143 48.5965C134.437 47.3024 136.825 46.892 138.477 47.6799L151.638 53.9573C153.29 54.7452 153.58 56.4331 152.286 57.7273L141.975 68.0378C140.681 69.3319 138.293 69.7423 136.641 68.9544L123.48 62.677C121.828 61.8891 121.538 60.2012 122.832 58.907L133.143 48.5965ZM250.394 104.523C251.688 103.229 254.076 102.818 255.728 103.606L268.889 109.883C270.541 110.671 270.831 112.359 269.537 113.653L259.226 123.964C257.932 125.258 255.544 125.668 253.892 124.881L240.731 118.603C239.079 117.815 238.789 116.127 240.083 114.833L250.394 104.523ZM197.362 140.078C196.334 139.588 194.848 139.843 194.043 140.648L187.628 147.063C186.823 147.868 187.003 148.918 188.031 149.409L196.219 153.314C197.247 153.804 198.733 153.549 199.538 152.744L205.953 146.329C206.758 145.524 206.578 144.474 205.55 143.984L197.362 140.078ZM156.045 120.371C155.018 119.881 153.532 120.136 152.727 120.941L146.312 127.356C145.507 128.161 145.687 129.212 146.715 129.702L154.903 133.607C155.931 134.098 157.417 133.842 158.222 133.037L164.637 126.622C165.442 125.817 165.261 124.767 164.234 124.277L156.045 120.371ZM90.4862 91.2547C91.2914 90.4495 92.7773 90.1942 93.805 90.6844L101.993 94.59C103.021 95.0802 103.201 96.1303 102.396 96.9355L95.9814 103.35C95.1763 104.155 93.6904 104.411 92.6626 103.921L84.4744 100.015C83.4467 99.5248 83.2662 98.4747 84.0714 97.6695L90.4862 91.2547ZM132.172 111.138C132.977 110.333 134.463 110.077 135.491 110.568L143.679 114.473C144.706 114.963 144.887 116.013 144.082 116.819L137.667 123.233C136.862 124.039 135.376 124.294 134.348 123.804L126.16 119.898C125.132 119.408 124.952 118.358 125.757 117.553L132.172 111.138ZM111.408 101.234C112.213 100.429 113.699 100.174 114.727 100.664L122.915 104.57C123.943 105.06 124.123 106.11 123.318 106.915L116.903 113.33C116.098 114.135 114.612 114.39 113.585 113.9L105.396 109.995C104.369 109.504 104.188 108.454 104.993 107.649L111.408 101.234ZM202.065 166.225C201.037 165.735 199.551 165.99 198.746 166.795L192.331 173.21C191.526 174.015 191.707 175.065 192.734 175.556L200.922 179.461C201.95 179.951 203.436 179.696 204.241 178.891L210.656 172.476C211.461 171.671 211.281 170.621 210.253 170.131L202.065 166.225ZM160.748 146.518C159.72 146.028 158.234 146.283 157.429 147.088L151.014 153.503C150.209 154.308 150.389 155.358 151.417 155.848L159.605 159.754C160.633 160.244 162.119 159.989 162.924 159.184L169.339 152.769C170.144 151.964 169.963 150.914 168.936 150.423L160.748 146.518ZM119.43 126.811C118.402 126.32 116.916 126.576 116.111 127.381L109.697 133.796C108.891 134.601 109.072 135.651 110.1 136.141L118.288 140.047C119.315 140.537 120.801 140.282 121.607 139.477L128.021 133.062C128.827 132.257 128.646 131.206 127.618 130.716L119.43 126.811ZM98.771 116.957C97.7432 116.467 96.2573 116.722 95.4521 117.527L89.0373 123.942C88.2321 124.747 88.4126 125.797 89.4403 126.288L97.6285 130.193C98.6563 130.683 100.142 130.428 100.947 129.623L107.362 123.208C108.167 122.403 107.987 121.353 106.959 120.863L98.771 116.957ZM73.918 107.824C74.7231 107.019 76.209 106.764 77.2368 107.254L85.425 111.16C86.4527 111.65 86.6332 112.7 85.828 113.505L79.4132 119.92C78.608 120.725 77.1221 120.981 76.0943 120.49L67.9062 116.585C66.8784 116.095 66.698 115.044 67.5032 114.239L73.918 107.824ZM123.134 153.619C122.106 153.129 120.62 153.384 119.815 154.19L113.4 160.604C112.595 161.41 112.776 162.46 113.803 162.95L121.992 166.855C123.019 167.346 124.505 167.09 125.311 166.285L131.725 159.87C132.53 159.065 132.35 158.015 131.322 157.525L123.134 153.619ZM143.792 163.473C142.765 162.983 141.279 163.238 140.474 164.043L134.059 170.458C133.254 171.263 133.434 172.313 134.462 172.803L142.65 176.709C143.678 177.199 145.164 176.944 145.969 176.139L152.384 169.724C153.189 168.919 153.008 167.869 151.981 167.378L143.792 163.473ZM57.0557 124.686C57.8608 123.88 59.3467 123.625 60.3745 124.115L68.5627 128.021C69.5904 128.511 69.7709 129.561 68.9657 130.366L62.5509 136.781C61.7457 137.586 60.2598 137.842 59.2321 137.352L51.0439 133.446C50.0161 132.956 49.8357 131.906 50.6409 131.1L57.0557 124.686ZM122.748 181.769C123.553 180.964 125.039 180.708 126.067 181.199L134.255 185.104C135.283 185.594 135.463 186.644 134.658 187.45L128.243 193.864C127.438 194.67 125.952 194.925 124.924 194.435L116.736 190.529C115.709 190.039 115.528 188.989 116.333 188.184L122.748 181.769ZM60.7725 152.208C61.5776 151.403 63.0635 151.148 64.0913 151.638L72.2795 155.543C73.3072 156.034 73.4877 157.084 72.6825 157.889L66.2677 164.304C65.4625 165.109 63.9766 165.364 62.9488 164.874L54.7607 160.968C53.7329 160.478 53.5525 159.428 54.3577 158.623L60.7725 152.208ZM39.6221 142.12C40.4272 141.315 41.9131 141.06 42.9409 141.55L51.1291 145.455C52.1568 145.945 52.3373 146.996 51.5321 147.801L45.1173 154.216C44.3121 155.021 42.8262 155.276 41.7985 154.786L33.6103 150.88C32.5825 150.39 32.4021 149.34 33.2073 148.535L39.6221 142.12ZM105.408 171.345C104.38 170.855 102.894 171.11 102.089 171.915L95.6741 178.33C94.8689 179.135 95.0494 180.185 96.0772 180.676L104.265 184.581C105.293 185.071 106.779 184.816 107.584 184.011L113.999 177.596C114.804 176.791 114.624 175.741 113.596 175.25L105.408 171.345ZM84.7495 161.491C83.7217 161.001 82.2358 161.257 81.4307 162.062L75.0159 168.477C74.2107 169.282 74.3911 170.332 75.4189 170.822L83.607 174.728C84.6348 175.218 86.1207 174.963 86.9259 174.157L93.3407 167.743C94.1459 166.937 93.9654 165.887 92.9377 165.397L84.7495 161.491ZM81.4309 134.297C80.4032 133.807 78.9173 134.063 78.1121 134.868L71.6973 141.283C70.8921 142.088 71.0726 143.138 72.1003 143.628L80.2885 147.534C81.3163 148.024 82.8022 147.769 83.6073 146.963L90.0221 140.549C90.8273 139.743 90.6469 138.693 89.6191 138.203L81.4309 134.297ZM98.7705 144.721C99.5757 143.916 101.062 143.661 102.089 144.151L110.278 148.057C111.305 148.547 111.486 149.597 110.681 150.402L104.266 156.817C103.461 157.622 101.975 157.877 100.947 157.387L92.7587 153.482C91.731 152.991 91.5505 151.941 92.3557 151.136L98.7705 144.721ZM185.109 183.18C184.081 182.69 182.595 182.945 181.79 183.75L175.375 190.165C174.57 190.97 174.75 192.021 175.778 192.511L183.966 196.416C184.994 196.907 186.48 196.651 187.285 195.846L193.7 189.431C194.505 188.626 194.325 187.576 193.297 187.086L185.109 183.18ZM164.943 173.561C163.915 173.071 162.429 173.326 161.624 174.131L155.209 180.546C154.404 181.351 154.584 182.401 155.612 182.892L163.8 186.797C164.828 187.287 166.314 187.032 167.119 186.227L173.534 179.812C174.339 179.007 174.159 177.957 173.131 177.467L164.943 173.561ZM178.193 157.562C178.999 156.757 180.485 156.501 181.512 156.992L189.7 160.897C190.728 161.387 190.909 162.437 190.103 163.243L183.689 169.657C182.884 170.463 181.398 170.718 180.37 170.228L172.182 166.322C171.154 165.832 170.973 164.782 171.779 163.977L178.193 157.562ZM140.088 136.664C139.061 136.174 137.575 136.429 136.77 137.235L130.355 143.649C129.55 144.455 129.73 145.505 130.758 145.995L138.946 149.901C139.974 150.391 141.46 150.135 142.265 149.33L148.68 142.915C149.485 142.11 149.304 141.06 148.277 140.57L140.088 136.664ZM173.384 130.795C174.189 129.99 175.675 129.734 176.703 130.225L184.891 134.13C185.919 134.62 186.099 135.67 185.294 136.476L178.879 142.89C178.074 143.696 176.588 143.951 175.56 143.461L167.372 139.555C166.344 139.065 166.164 138.015 166.969 137.21L173.384 130.795ZM214.701 150.502C215.506 149.697 216.992 149.442 218.02 149.932L226.208 153.837C227.236 154.328 227.416 155.378 226.611 156.183L220.196 162.598C219.391 163.403 217.905 163.658 216.878 163.168L208.689 159.263C207.662 158.772 207.481 157.722 208.286 156.917L214.701 150.502ZM162.454 62.5779C163.749 61.2838 166.137 60.8734 167.789 61.6613L180.95 67.9387C182.602 68.7267 182.892 70.4145 181.597 71.7087L171.287 82.0192C169.993 83.3134 167.604 83.7237 165.953 82.9358L152.792 76.6584C151.14 75.8705 150.85 74.1826 152.144 72.8884L162.454 62.5779ZM113.459 68.2802C114.753 66.9861 117.142 66.5757 118.794 67.3636L131.955 73.641C133.606 74.4289 133.897 76.1168 132.602 77.411L122.292 87.7215C120.998 89.0156 118.609 89.426 116.957 88.6381L103.797 82.3607C102.145 81.5728 101.855 79.8849 103.149 78.5907L113.459 68.2802ZM142.772 82.2617C144.066 80.9675 146.454 80.5571 148.106 81.3451L161.267 87.6225C162.919 88.4104 163.209 90.0983 161.915 91.3924L151.604 101.703C150.31 102.997 147.922 103.407 146.27 102.62L133.109 96.3422C131.457 95.5542 131.167 93.8663 132.461 92.5722L142.772 82.2617ZM191.768 76.5595C193.062 75.2653 195.45 74.8549 197.102 75.6429L210.263 81.9202C211.915 82.7082 212.205 84.3961 210.911 85.6902L200.6 96.0007C199.306 97.2949 196.918 97.7053 195.266 96.9173L182.105 90.6399C180.453 89.852 180.163 88.1641 181.457 86.87L191.768 76.5595ZM172.085 96.2432C173.379 94.9491 175.768 94.5387 177.42 95.3266L190.581 101.604C192.232 102.392 192.522 104.08 191.228 105.374L180.918 115.684C179.624 116.979 177.235 117.389 175.583 116.601L162.423 110.324C160.771 109.536 160.481 107.848 161.775 106.554L172.085 96.2432ZM201.397 110.225C202.691 108.93 205.079 108.52 206.731 109.308L219.892 115.585C221.544 116.373 221.834 118.061 220.54 119.355L210.229 129.666C208.935 130.96 206.547 131.37 204.895 130.582L191.734 124.305C190.082 123.517 189.792 121.829 191.086 120.535L201.397 110.225ZM230.711 124.206C232.006 122.912 234.394 122.502 236.046 123.29L249.207 129.567C250.859 130.355 251.149 132.043 249.854 133.337L239.544 143.648C238.25 144.942 235.861 145.352 234.21 144.564L221.049 138.287C219.397 137.499 219.107 135.811 220.401 134.517L230.711 124.206Z" fill="#9E9E9E"/>
<rect width="13.1955" height="13.1955" rx="2.06179" transform="matrix(0.902585 0.430511 -0.707107 0.707107 40.7812 138.834)" fill="#E7E7E7"/>
<circle r="3.71123" transform="matrix(0.902585 0.430511 -0.707107 0.707107 40.955 145.807)" fill="#102538"/>
<circle r="3.29887" transform="matrix(0.902585 0.430511 -0.707107 0.707107 43.1884 146.872)" stroke="#0695D7" stroke-width="0.824718" stroke-dasharray="1.65 1.65"/>
<rect width="13.1955" height="13.1955" rx="2.06179" transform="matrix(0.902585 0.430511 -0.707107 0.707107 61.9319 148.922)" fill="#E7E7E7"/>
<path d="M60.2612 154.966L60.4713 156.188L64.1473 155.556" stroke="#0695D7" stroke-width="0.647405"/>
<path d="M67.1066 156.968L63.0622 157.663" stroke="#FF4758" stroke-width="0.647405"/>
<path d="M64.8371 155.886L65.3284 158.744" stroke="#FF4758" stroke-width="0.647405"/>
<rect width="13.1955" height="13.1955" rx="2.06179" transform="matrix(0.902585 0.430511 -0.707107 0.707107 123.907 178.483)" fill="#102538"/>
<path d="M126.022 183.014C125.944 183.075 125.87 183.142 125.799 183.213C125.066 183.946 125.191 184.758 126.168 185.645L126.447 185.887C126.568 185.994 126.656 186.067 126.699 186.118C126.749 186.162 126.811 186.22 126.864 186.287C126.983 186.423 126.953 186.521 126.865 186.608C126.703 186.771 126.412 186.753 126.004 186.559C125.45 186.295 125.273 185.909 125.465 185.41L123.242 185.342C122.826 186.227 123.317 187.143 124.695 187.8C124.928 187.911 125.159 188.002 125.389 188.074L119.52 186.932L126.022 183.014Z" fill="#E7E7E7"/>
<path fill-rule="evenodd" clip-rule="evenodd" d="M128.707 184.98C128.867 184.566 128.748 184.257 128.339 184.062C128.022 183.911 127.75 183.942 127.608 184.085C127.506 184.186 127.504 184.297 127.585 184.415C127.676 184.538 127.88 184.735 128.2 185.019C128.396 185.195 128.487 185.273 128.614 185.415L130.871 185.045L130.861 185.04L128.707 184.98Z" fill="#E7E7E7"/>
<rect width="13.1955" height="13.1955" rx="2.06179" transform="matrix(0.902585 0.430511 -0.707107 0.707107 103.248 168.629)" fill="#E7E7E7"/>
<path fill-rule="evenodd" clip-rule="evenodd" d="M107.073 178.035L107.381 178.266C107.594 178.117 107.792 177.952 107.972 177.772C108.151 177.593 108.304 177.406 108.431 177.216L108.009 177.099L107.63 176.993C107.839 176.679 107.959 176.352 107.992 176.03L108.416 176.017L108.888 176.002C108.93 175.589 108.86 175.183 108.682 174.808L108.233 174.952L107.829 175.081C107.69 174.788 107.468 174.52 107.166 174.294L107.489 174.068L107.847 173.816C107.664 173.679 107.457 173.555 107.228 173.445C106.999 173.336 106.757 173.247 106.507 173.177L106.293 173.497L106.101 173.786C105.688 173.671 105.246 173.623 104.801 173.636L104.832 173.33L104.868 172.988C104.297 173.006 103.722 173.105 103.178 173.279L103.325 173.589L103.457 173.867C103.033 174.003 102.632 174.196 102.282 174.442L102.004 174.234L101.696 174.004C101.483 174.153 101.285 174.318 101.105 174.497C100.926 174.677 100.773 174.863 100.646 175.053L101.068 175.171L101.447 175.277C101.238 175.59 101.119 175.917 101.085 176.24L100.661 176.253L100.189 176.268C100.147 176.68 100.216 177.087 100.394 177.462L100.844 177.318L101.248 177.189C101.387 177.481 101.609 177.75 101.911 177.976L101.588 178.202L101.23 178.454C101.413 178.591 101.62 178.715 101.849 178.824C102.078 178.934 102.32 179.023 102.57 179.093L102.784 178.772L102.976 178.484C103.389 178.599 103.831 178.647 104.276 178.633L104.245 178.94L104.209 179.281C104.78 179.263 105.355 179.165 105.899 178.991L105.752 178.681L105.62 178.403C106.044 178.267 106.445 178.074 106.795 177.828L107.073 178.035ZM106.52 177.08C105.663 177.937 104.081 178.209 102.986 177.687C101.892 177.165 101.699 176.047 102.557 175.19C103.414 174.332 104.997 174.06 106.091 174.582C107.186 175.104 107.378 176.223 106.52 177.08Z" fill="#102538"/>
<rect width="13.1955" height="13.1955" rx="2.06179" transform="matrix(0.902585 0.430511 -0.707107 0.707107 82.5908 158.776)" fill="#E7E7E7"/>
<path fill-rule="evenodd" clip-rule="evenodd" d="M87.108 163.849C87.1076 163.849 87.1073 163.849 87.1069 163.849C86.8776 163.739 86.636 163.65 86.3857 163.58L86.1719 163.901L85.9796 164.189C85.567 164.074 85.1248 164.026 84.6795 164.04L84.7112 163.733L84.7464 163.392C84.1757 163.41 83.6008 163.508 83.0569 163.682L83.2039 163.992L83.3362 164.27C82.9119 164.406 82.5112 164.599 82.1607 164.845L81.883 164.638L81.5745 164.407C81.3619 164.556 81.1639 164.721 80.9843 164.901C80.8047 165.08 80.6516 165.266 80.5247 165.457L80.9464 165.574L81.326 165.68C81.117 165.994 80.9974 166.321 80.964 166.643L80.5397 166.656L80.0682 166.671C80.0255 167.084 80.0953 167.49 80.2733 167.865L80.7227 167.721L81.1272 167.592C81.2662 167.885 81.4881 168.153 81.7898 168.379L81.4673 168.605L81.109 168.857C81.2921 168.994 81.4985 169.118 81.7278 169.228C81.7282 169.228 81.7285 169.228 81.7289 169.228L82.8661 168.091C82.8657 168.091 82.8654 168.091 82.865 168.091C81.7705 167.568 81.5784 166.45 82.4358 165.593C83.2933 164.735 84.8756 164.463 85.9701 164.985C85.9704 164.986 85.9708 164.986 85.9711 164.986L87.108 163.849Z" fill="#102538"/>
<rect width="2.33001" height="2.33001" transform="matrix(0.902585 0.430511 -0.707107 0.707107 87.3613 163.969)" fill="#4FCDA6"/>
<rect width="2.33001" height="2.33001" transform="matrix(0.902585 0.430511 -0.707107 0.707107 85.4951 165.835)" fill="#FF4758"/>
<rect width="2.33001" height="2.33001" transform="matrix(0.902585 0.430511 -0.707107 0.707107 83.6289 167.701)" fill="#0695D7"/>
<rect width="13.1955" height="13.1955" rx="2.06179" transform="matrix(0.902585 0.430511 -0.707107 0.707107 58.2158 121.4)" fill="#E7E7E7"/>
<circle r="4.49353" transform="matrix(0.902585 0.430511 -0.707107 0.707107 59.5045 128.905)" fill="#D6D6D6"/>
<path fill-rule="evenodd" clip-rule="evenodd" d="M61.5901 130.508L61.1064 127.693L61.0494 127.361L60.5801 127.442L56.5974 128.126L56.7114 128.79L59.6284 128.288L57.6268 130.29L58.3712 130.645L60.3135 128.703L60.6514 130.669L61.5901 130.508Z" fill="#102538"/>
<rect width="13.1955" height="13.1955" rx="2.06179" transform="matrix(0.902585 0.430511 -0.707107 0.707107 79.2715 131.582)" fill="#E7E7E7"/>
<path fill-rule="evenodd" clip-rule="evenodd" d="M83.9485 136.781C84.1459 136.875 84.2738 137.027 84.304 137.203L84.4549 138.081C84.528 138.506 85.2923 138.594 85.6663 138.22L86.086 137.8C86.086 137.8 86.086 137.8 86.086 137.8C86.086 137.8 86.086 137.8 86.086 137.8L81.3582 142.528C81.0361 142.85 80.4417 142.952 80.0306 142.756L75.7829 140.73C75.3717 140.534 75.2996 140.114 75.6216 139.792L79.7663 135.647C80.0884 135.325 80.6828 135.223 81.0939 135.419L83.9485 136.781Z" fill="#D6D6D6"/>
<rect width="2.88651" height="1.0564" transform="matrix(0.902585 0.430511 -0.707107 0.707107 80.6639 137.06)" fill="#0695D7"/>
<rect width="2.88651" height="1.0564" transform="matrix(0.902585 0.430511 -0.707107 0.707107 79.6346 138.091)" fill="#102538"/>
<rect width="2.88651" height="1.0564" transform="matrix(0.902585 0.430511 -0.707107 0.707107 78.5995 139.125)" fill="#102538"/>
<rect width="13.1955" height="13.1955" rx="2.06179" transform="matrix(0.902585 0.430511 -0.707107 0.707107 99.9307 141.435)" fill="#E7E7E7"/>
<path d="M105.276 150.875C104.648 151.503 103.796 152.004 102.828 152.314C101.86 152.624 100.819 152.729 99.8378 152.616C98.8564 152.503 97.9782 152.177 97.3142 151.679C96.6501 151.182 96.2302 150.534 96.1073 149.82C95.9845 149.105 96.1644 148.355 96.6241 147.664C97.0839 146.973 97.803 146.372 98.6904 145.938C99.5778 145.504 100.594 145.256 101.61 145.225C102.625 145.194 103.596 145.382 104.398 145.764" stroke="#0695D7" stroke-width="0.824718"/>
<path d="M98.4063 147.81L98.8935 147.98C98.8188 148.076 98.789 148.162 98.8042 148.238C98.8194 148.315 98.8711 148.374 98.9595 148.417C99.0543 148.462 99.1621 148.472 99.2828 148.446C99.4046 148.421 99.5134 148.36 99.609 148.265C99.6996 148.174 99.7403 148.087 99.7311 148.005C99.7219 147.922 99.6726 147.86 99.5832 147.817C99.5243 147.789 99.445 147.764 99.3453 147.743L99.6894 147.474C99.8112 147.536 99.9269 147.56 100.037 147.547C100.147 147.533 100.24 147.489 100.314 147.414C100.378 147.351 100.404 147.289 100.394 147.229C100.383 147.168 100.338 147.119 100.259 147.081C100.18 147.044 100.092 147.033 99.9933 147.049C99.895 147.065 99.7988 147.112 99.7048 147.188L99.3376 146.93C99.4807 146.83 99.6154 146.761 99.7417 146.721C99.87 146.681 100.006 146.668 100.151 146.68C100.297 146.691 100.436 146.728 100.568 146.791C100.793 146.899 100.918 147.042 100.942 147.22C100.962 147.365 100.914 147.496 100.797 147.613C100.632 147.777 100.386 147.854 100.058 147.843C100.172 147.931 100.23 148.035 100.231 148.154C100.234 148.274 100.178 148.391 100.065 148.505C99.8998 148.67 99.6824 148.773 99.4125 148.816C99.1426 148.859 98.8932 148.826 98.6642 148.717C98.4472 148.613 98.316 148.479 98.2705 148.313C98.2259 148.147 98.2712 147.979 98.4063 147.81ZM102.764 148.53L102.281 148.356C102.342 148.279 102.366 148.213 102.355 148.157C102.343 148.101 102.301 148.055 102.228 148.02C102.131 147.974 102.014 147.969 101.878 148.005C101.743 148.042 101.559 148.164 101.326 148.372C101.546 148.32 101.741 148.335 101.911 148.417C102.103 148.508 102.21 148.644 102.232 148.823C102.255 149.003 102.176 149.184 101.995 149.365C101.803 149.557 101.576 149.677 101.316 149.724C101.056 149.772 100.813 149.742 100.588 149.634C100.346 149.519 100.22 149.35 100.211 149.129C100.203 148.907 100.367 148.628 100.702 148.292C101.047 147.948 101.376 147.738 101.691 147.664C102.005 147.589 102.292 147.614 102.552 147.738C102.734 147.825 102.844 147.937 102.883 148.073C102.923 148.21 102.884 148.362 102.764 148.53ZM100.937 148.818C100.82 148.936 100.764 149.042 100.768 149.139C100.774 149.235 100.821 149.304 100.909 149.346C100.994 149.387 101.091 149.395 101.2 149.37C101.309 149.345 101.422 149.273 101.541 149.154C101.663 149.032 101.722 148.928 101.717 148.843C101.714 148.756 101.666 148.691 101.574 148.647C101.486 148.605 101.384 148.597 101.268 148.623C101.153 148.647 101.043 148.713 100.937 148.818ZM104.316 148.579C104.549 148.69 104.665 148.842 104.666 149.034C104.668 149.262 104.491 149.554 104.135 149.911C103.78 150.266 103.446 150.484 103.133 150.565C102.876 150.631 102.63 150.608 102.398 150.498C102.165 150.386 102.047 150.227 102.044 150.018C102.042 149.809 102.222 149.525 102.582 149.164C102.936 148.81 103.269 148.593 103.581 148.513C103.839 148.446 104.084 148.469 104.316 148.579ZM104.018 148.878C103.962 148.852 103.899 148.842 103.827 148.849C103.756 148.856 103.672 148.889 103.577 148.95C103.452 149.028 103.279 149.177 103.059 149.397C102.839 149.618 102.701 149.776 102.647 149.872C102.593 149.968 102.574 150.04 102.589 150.087C102.605 150.135 102.641 150.173 102.697 150.199C102.752 150.226 102.816 150.236 102.887 150.229C102.958 150.222 103.042 150.188 103.138 150.128C103.262 150.05 103.434 149.902 103.654 149.681C103.875 149.461 104.012 149.303 104.065 149.207C104.12 149.111 104.139 149.039 104.123 148.991C104.108 148.942 104.073 148.905 104.018 148.878Z" fill="#102538"/>
<rect width="13.1955" height="13.1955" rx="2.06179" transform="matrix(0.902585 0.430511 -0.707107 0.707107 141.633 160.757)" fill="#E7E7E7"/>
<path d="M135.492 169.94L137.692 169.22L137.882 167.689L138.574 168.019L138.424 169.037L139.737 168.574L140.423 168.901L138.396 169.581L138.217 171.24L137.503 170.899L137.648 169.796L136.202 170.279L135.492 169.94ZM138.537 171.392L140.814 169.115L141.406 169.398L139.516 171.288L140.987 171.99L140.6 172.376L138.537 171.392ZM141.621 171.76L142.241 171.991C142.124 172.159 142.083 172.303 142.117 172.425C142.152 172.546 142.26 172.65 142.44 172.736C142.631 172.827 142.805 172.864 142.964 172.847C143.125 172.83 143.248 172.779 143.332 172.694C143.387 172.64 143.412 172.584 143.408 172.527C143.407 172.469 143.37 172.402 143.296 172.326C143.246 172.274 143.121 172.165 142.923 171.999C142.667 171.786 142.52 171.605 142.482 171.454C142.429 171.242 142.493 171.045 142.674 170.863C142.791 170.746 142.942 170.657 143.128 170.596C143.315 170.534 143.515 170.515 143.727 170.537C143.94 170.56 144.159 170.625 144.384 170.733C144.752 170.908 144.966 171.103 145.025 171.318C145.085 171.533 145.014 171.749 144.813 171.964L144.2 171.702C144.293 171.572 144.323 171.461 144.29 171.37C144.26 171.278 144.161 171.193 143.995 171.114C143.823 171.032 143.661 170.995 143.508 171.004C143.41 171.01 143.331 171.042 143.271 171.102C143.217 171.156 143.2 171.216 143.22 171.283C143.246 171.368 143.376 171.505 143.61 171.696C143.845 171.886 144.002 172.043 144.082 172.166C144.164 172.288 144.194 172.418 144.172 172.554C144.153 172.689 144.071 172.83 143.926 172.975C143.794 173.106 143.624 173.207 143.416 173.278C143.208 173.348 142.99 173.371 142.763 173.346C142.537 173.32 142.297 173.246 142.043 173.125C141.672 172.948 141.454 172.745 141.389 172.517C141.326 172.288 141.403 172.035 141.621 171.76Z" fill="#102538"/>
<rect width="4.01956" height="1.0564" transform="matrix(0.902585 0.430511 -0.707107 0.707107 145.279 164.322)" fill="#102538"/>
<rect width="4.01956" height="1.0564" transform="matrix(0.902585 0.430511 -0.707107 0.707107 144.057 165.545)" fill="#102538"/>
<rect width="2.00972" height="1.0564" transform="matrix(0.902585 0.430511 -0.707107 0.707107 144.647 167.634)" fill="#0695D7"/>
<rect width="1.05564" height="1.0564" transform="matrix(0.902585 0.430511 -0.707107 0.707107 143.796 163.614)" fill="#FF4758"/>
<rect width="13.1955" height="13.1955" rx="2.06179" transform="matrix(0.902585 0.430511 -0.707107 0.707107 182.95 180.464)" fill="#E7E7E7"/>
<rect width="2.78238" height="1.0564" transform="matrix(0.902585 0.430511 -0.707107 0.707107 181.142 185.941)" fill="#102538"/>
<rect width="2.78238" height="1.0564" transform="matrix(0.902585 0.430511 -0.707107 0.707107 185.561 185.516)" fill="#102538"/>
<rect width="2.78238" height="1.0564" transform="matrix(0.902585 0.430511 -0.707107 0.707107 182.13 188.946)" fill="#102538"/>
<rect width="1.05564" height="1.0564" transform="matrix(0.902585 0.430511 -0.707107 0.707107 189.373 186.556)" fill="#FF4758"/>
<rect width="1.05564" height="1.0564" transform="matrix(0.902585 0.430511 -0.707107 0.707107 188.32 187.608)" fill="#0695D7"/>
<rect width="1.05564" height="1.0564" transform="matrix(0.902585 0.430511 -0.707107 0.707107 185.942 189.986)" fill="#FF4758"/>
<rect width="1.05564" height="1.0564" transform="matrix(0.902585 0.430511 -0.707107 0.707107 184.891 191.038)" fill="#4FCDA6"/>
<rect width="13.1955" height="13.1955" rx="2.06179" transform="matrix(0.902585 0.430511 -0.707107 0.707107 162.783 170.845)" fill="#E7E7E7"/>
<rect width="2.37701" height="1.0564" transform="matrix(0.902585 0.430511 -0.707107 0.707107 162.005 174.458)" fill="#0695D7"/>
<rect width="2.37701" height="1.0564" transform="matrix(0.902585 0.430511 -0.707107 0.707107 161.961 176.086)" fill="#102538"/>
<rect width="2.37701" height="1.0564" transform="matrix(0.902585 0.430511 -0.707107 0.707107 164.784 178.845)" fill="#FF4758"/>
<rect width="2.37701" height="1.0564" transform="matrix(0.902585 0.430511 -0.707107 0.707107 164.74 180.473)" fill="#102538"/>
<rect width="7.58201" height="1.0564" transform="matrix(0.707107 -0.707107 0.902585 0.430511 160.915 180.804)" fill="#D6D6D6"/>
<rect width="13.1955" height="13.1955" rx="2.06179" transform="matrix(0.902585 0.430511 -0.707107 0.707107 120.975 150.903)" fill="#E7E7E7"/>
<rect width="4.94831" height="1.0564" transform="matrix(0.902585 0.430511 -0.707107 0.707107 121.016 156.359)" fill="#102538"/>
<rect width="4.94831" height="1.0564" transform="matrix(0.902585 0.430511 -0.707107 0.707107 119.793 157.582)" fill="#102538"/>
<rect width="4.94831" height="1.0564" transform="matrix(0.902585 0.430511 -0.707107 0.707107 118.57 158.805)" fill="#102538"/>
<rect width="2.47415" height="1.0564" transform="matrix(0.902585 0.430511 -0.707107 0.707107 122.239 155.136)" fill="#4FCDA6"/>
<rect width="13.1955" height="13.1955" rx="2.06179" transform="matrix(0.902585 0.430511 -0.707107 0.707107 75.0759 104.538)" fill="#E7E7E7"/>
<rect x="73.3027" y="110.813" width="6.55718" height="2.72851" rx="0.824717" transform="matrix(0.992707 -0.236253 0.120553 0.971692 -12.8242 20.4549)" stroke="#102538" stroke-width="0.824718"/>
<rect width="6.99769" height="0.824718" transform="matrix(0.902585 0.430511 -0.707107 0.707107 70.9628 112.783)" fill="#0695D7"/>
<rect width="13.1955" height="13.1955" rx="2.06179" transform="matrix(0.902585 0.430511 -0.707107 0.707107 96.6125 114.241)" fill="#E7E7E7"/>
<path d="M100.527 119.123L102.115 121.818L99.4912 124.443L95.2781 124.371L93.6893 121.675L96.3135 119.051L100.527 119.123Z" fill="#102538"/>
<rect width="13.1955" height="13.1955" rx="2.06179" transform="matrix(0.902585 0.430511 -0.707107 0.707107 117.271 124.095)" fill="#E7E7E7"/>
<rect x="115.538" y="131.903" width="3.30963" height="2.38961" transform="matrix(0.992707 -0.236253 0.120553 0.971692 -15.0586 31.0302)" fill="#0695D7"/>
<path d="M117.175 129.251L120.848 129.313L122.233 131.663L119.945 133.95L116.273 133.888L114.888 131.538L117.175 129.251Z" stroke="#102538" stroke-width="0.824718"/>
<rect width="0.824718" height="3.51773" transform="matrix(1.06367 -0.397117 0.428108 0.726387 118.01 131.602)" fill="#102538"/>
<rect width="0.824718" height="3.51773" transform="matrix(0.16108 -0.827628 -1.13522 -0.0192802 118.754 131.957)" fill="#102538"/>
<rect width="13.1955" height="13.1955" rx="2.06179" transform="matrix(0.902585 0.430511 -0.707107 0.707107 179.354 154.275)" fill="#E7E7E7"/>
<circle r="3.29887" transform="matrix(0.902585 0.430511 -0.707107 0.707107 180.113 162.311)" fill="#102538"/>
<path d="M183.804 160.698C183.514 160.989 183.219 161.078 182.912 161.08C182.562 161.082 182.141 160.968 181.676 160.746C181.211 160.524 180.907 160.293 180.785 160.066C180.679 159.867 180.696 159.645 180.987 159.354C181.281 159.06 181.613 158.942 181.958 158.923C182.329 158.904 182.766 158.998 183.211 159.211C183.656 159.423 183.939 159.672 184.044 159.918C184.141 160.147 184.099 160.403 183.804 160.698Z" stroke="#102538" stroke-width="0.824718"/>
<rect width="13.1955" height="13.1955" rx="2.06179" transform="matrix(0.902585 0.430511 -0.707107 0.707107 158.588 143.802)" fill="#E7E7E7"/>
<circle r="0.618538" transform="matrix(0.902585 0.430511 -0.707107 0.707107 159.396 148.493)" fill="#102538"/>
<circle r="0.618538" transform="matrix(0.902585 0.430511 -0.707107 0.707107 161.629 149.558)" fill="#0695D7"/>
<circle r="0.618538" transform="matrix(0.902585 0.430511 -0.707107 0.707107 157.645 150.242)" fill="#102538"/>
<circle r="0.618538" transform="matrix(0.902585 0.430511 -0.707107 0.707107 159.878 151.307)" fill="#FF4758"/>
<circle r="0.618538" transform="matrix(0.902585 0.430511 -0.707107 0.707107 162.111 152.373)" fill="#102538"/>
<circle r="0.618538" transform="matrix(0.902585 0.430511 -0.707107 0.707107 158.13 153.057)" fill="#4FCDA6"/>
<circle r="0.618538" transform="matrix(0.902585 0.430511 -0.707107 0.707107 160.362 154.122)" fill="#102538"/>
<rect width="13.1955" height="13.1955" rx="2.06179" transform="matrix(0.902585 0.430511 -0.707107 0.707107 137.93 133.948)" fill="#E7E7E7"/>
<path fill-rule="evenodd" clip-rule="evenodd" d="M137.23 141.119L136.291 141.281L136.403 141.932L134.994 142.174L134.882 141.523L133.944 141.684L134.058 142.348L134.058 142.347L134.17 142.999L144.496 141.225L144.382 140.561L144.382 140.561L144.27 139.91L143.331 140.071L143.443 140.723L142.035 140.964L141.923 140.313L140.984 140.474L141.096 141.126L139.689 141.368L139.577 140.716L138.638 140.877L138.75 141.529L137.342 141.771L137.23 141.119Z" fill="#102538"/>
<rect width="13.1955" height="13.1955" rx="2.06179" transform="matrix(0.902585 0.430511 -0.707107 0.707107 199.905 163.509)" fill="#E7E7E7"/>
<path d="M194.163 172.164L196.363 171.443L196.553 169.913L197.245 170.242L197.095 171.26L198.408 170.797L199.094 171.124L197.067 171.805L196.888 173.463L196.175 173.123L196.319 172.019L194.873 172.502L194.163 172.164ZM197.208 173.616L199.485 171.339L200.077 171.621L198.187 173.511L199.658 174.213L199.271 174.6L197.208 173.616ZM200.292 173.983L200.912 174.214C200.795 174.382 200.754 174.527 200.788 174.648C200.823 174.77 200.931 174.874 201.111 174.959C201.302 175.05 201.476 175.087 201.635 175.07C201.796 175.053 201.919 175.002 202.003 174.918C202.058 174.863 202.083 174.808 202.079 174.75C202.078 174.693 202.041 174.625 201.967 174.549C201.917 174.497 201.792 174.388 201.594 174.223C201.338 174.01 201.191 173.828 201.153 173.677C201.1 173.465 201.164 173.268 201.345 173.086C201.462 172.97 201.613 172.88 201.799 172.819C201.986 172.758 202.186 172.738 202.398 172.76C202.611 172.783 202.83 172.849 203.055 172.956C203.423 173.131 203.637 173.327 203.696 173.541C203.756 173.757 203.685 173.972 203.484 174.187L202.871 173.925C202.964 173.795 202.994 173.685 202.961 173.594C202.931 173.502 202.832 173.416 202.666 173.337C202.494 173.255 202.332 173.218 202.179 173.227C202.081 173.233 202.002 173.265 201.942 173.325C201.888 173.379 201.871 173.44 201.891 173.506C201.917 173.591 202.047 173.729 202.281 173.919C202.516 174.11 202.673 174.266 202.753 174.389C202.835 174.512 202.865 174.641 202.843 174.777C202.824 174.913 202.742 175.053 202.597 175.198C202.465 175.33 202.295 175.431 202.087 175.501C201.879 175.572 201.661 175.594 201.434 175.569C201.208 175.543 200.968 175.469 200.714 175.348C200.343 175.171 200.125 174.969 200.061 174.74C199.997 174.511 200.074 174.259 200.292 173.983Z" fill="#102538"/>
<path fill-rule="evenodd" clip-rule="evenodd" d="M205.312 170.585L204.828 167.771L204.771 167.439L204.302 167.52L200.319 168.204L200.433 168.867L203.35 168.366L201.349 170.368L202.093 170.723L204.035 168.781L204.373 170.747L205.312 170.585Z" fill="#0695D7"/>
<rect width="13.1955" height="13.1955" rx="2.06179" transform="matrix(0.902585 0.430511 -0.707107 0.707107 112.569 97.9481)" fill="#E7E7E7"/>
<circle r="4.49353" transform="matrix(0.902585 0.430511 -0.707107 0.707107 113.858 105.453)" fill="#4FCDA6"/>
<path d="M110.937 104.149L111.205 105.707L115.888 104.902" stroke="#102538" stroke-width="0.824718"/>
<path d="M112.942 105.878L113.065 106.594L117.748 105.79" stroke="#102538" stroke-width="0.824718"/>
<rect width="13.1955" height="13.1955" rx="2.06179" transform="matrix(0.902585 0.430511 -0.707107 0.707107 133.331 107.851)" fill="#E7E7E7"/>
<circle r="3.71123" transform="matrix(0.902585 0.430511 -0.707107 0.707107 134.622 115.357)" fill="#4FCDA6"/>
<rect width="13.1955" height="13.1955" rx="2.06179" transform="matrix(0.902585 0.430511 -0.707107 0.707107 91.6465 87.9686)" fill="#E7E7E7"/>
<circle r="4.49353" transform="matrix(0.902585 0.430511 -0.707107 0.707107 92.936 95.4742)" fill="#D6D6D6"/>
<path d="M90.9442 94.6138L91.2118 96.1712L95.8946 95.3666" stroke="#102538" stroke-width="0.824718"/>
<rect width="13.1955" height="13.1955" rx="2.06179" transform="matrix(0.902585 0.430511 -0.707107 0.707107 153.886 117.655)" fill="#E7E7E7"/>
<circle r="3.71123" transform="matrix(0.902585 0.430511 -0.707107 0.707107 155.175 125.161)" fill="#4FCDA6"/>
<path d="M158.524 126.759C157.917 127.366 157.06 127.826 156.099 128.061C155.138 128.295 154.133 128.29 153.254 128.046C152.376 127.802 151.679 127.334 151.281 126.722C150.884 126.11 150.811 125.391 151.076 124.689C151.34 123.987 151.925 123.344 152.731 122.87C153.537 122.396 154.514 122.121 155.496 122.091C156.477 122.061 157.403 122.278 158.115 122.706C158.826 123.133 159.28 123.744 159.399 124.435L155.175 125.161L158.524 126.759Z" fill="#FFAC2F"/>
<path d="M158.524 126.759C158.005 127.278 157.302 127.691 156.502 127.947C155.702 128.203 154.843 128.29 154.032 128.197C153.221 128.103 152.496 127.834 151.947 127.423C151.399 127.012 151.052 126.477 150.95 125.887C150.849 125.296 150.998 124.676 151.377 124.106C151.757 123.535 152.351 123.039 153.084 122.68C153.817 122.322 154.656 122.117 155.496 122.091C156.335 122.066 157.136 122.221 157.799 122.537L155.175 125.161L158.524 126.759Z" fill="#FF4758"/>
<path d="M158.524 126.759C158.093 127.19 157.532 127.55 156.892 127.807C156.252 128.064 155.551 128.209 154.854 128.23C154.156 128.252 153.482 128.148 152.891 127.929C152.301 127.71 151.812 127.382 151.468 126.974C151.125 126.566 150.936 126.091 150.921 125.591C150.905 125.09 151.062 124.58 151.377 124.106C151.693 123.631 152.158 123.207 152.731 122.87C153.304 122.533 153.967 122.295 154.662 122.175L155.175 125.161L158.524 126.759Z" fill="#0695D7"/>
<rect width="13.1955" height="13.1955" rx="2.06179" transform="matrix(0.902585 0.430511 -0.707107 0.707107 174.543 127.509)" fill="#E7E7E7"/>
<circle r="3.71123" transform="matrix(0.902585 0.430511 -0.707107 0.707107 175.833 135.014)" fill="#102538"/>
<circle r="0.618538" transform="matrix(0.902585 0.430511 -0.707107 0.707107 174.273 134.272)" fill="#E7E7E7"/>
<circle r="0.618538" transform="matrix(0.902585 0.430511 -0.707107 0.707107 175.833 135.014)" fill="#E7E7E7"/>
<circle r="0.618538" transform="matrix(0.902585 0.430511 -0.707107 0.707107 177.391 135.758)" fill="#E7E7E7"/>
<rect width="13.1955" height="13.1955" rx="2.06179" transform="matrix(0.902585 0.430511 -0.707107 0.707107 195.203 137.362)" fill="#E7E7E7"/>
<rect width="2.88651" height="0.824718" transform="matrix(0.902585 0.430511 -0.707107 0.707107 195.481 143.955)" fill="#0695D7"/>
<path d="M193.732 146.47C193.064 146.15 192.63 145.636 192.528 145.04C192.425 144.444 192.662 143.815 193.186 143.291C193.71 142.767 194.479 142.391 195.322 142.246C196.166 142.101 197.015 142.199 197.684 142.518" stroke="#102538" stroke-width="0.824718"/>
<rect width="2.88651" height="0.824718" transform="matrix(-0.902585 -0.430511 0.707107 -0.707107 197.503 145.781)" fill="#0695D7"/>
<path d="M199.252 143.266C199.921 143.585 200.354 144.099 200.457 144.695C200.559 145.292 200.322 145.921 199.798 146.445C199.274 146.969 198.506 147.345 197.662 147.49C196.819 147.635 195.969 147.537 195.3 147.218" stroke="#102538" stroke-width="0.824718"/>
<rect width="13.1955" height="13.1955" rx="2.06179" transform="matrix(0.902585 0.430511 -0.707107 0.707107 215.861 147.216)" fill="#E7E7E7"/>
<circle r="4.08029" transform="matrix(0.902585 0.430511 -0.707107 0.707107 217.15 154.722)" stroke="#FF4758" stroke-width="0.824718"/>
<circle r="0.412359" transform="matrix(0.902585 0.430511 -0.707107 0.707107 215.806 156.065)" fill="#FF4758"/>
<rect width="0.824718" height="3.21774" rx="0.412359" transform="matrix(0.902585 0.430511 -0.707107 0.707107 218.413 152.909)" fill="#FF4758"/>
<rect width="21.2091" height="21.2091" rx="3.31392" transform="matrix(0.902585 0.430511 -0.707107 0.707107 252.44 100.351)" fill="#E7E7E7"/>
<rect width="3.13497" height="3.13617" rx="1.56748" transform="matrix(0.902585 0.430511 -0.707107 0.707107 253.405 105.965)" fill="#102538"/>
<rect width="3.13497" height="3.13617" rx="1.56748" transform="matrix(0.902585 0.430511 -0.707107 0.707107 260.811 109.497)" fill="#102538"/>
<rect width="3.13497" height="3.13617" rx="1.56748" transform="matrix(0.902585 0.430511 -0.707107 0.707107 247.604 111.765)" fill="#102538"/>
<rect width="3.13497" height="3.13617" rx="1.56748" transform="matrix(0.902585 0.430511 -0.707107 0.707107 255.01 115.297)" fill="#102538"/>
<rect x="254.931" y="109.05" width="9.11927" height="1.40566" transform="matrix(0.120553 0.971692 -0.992707 0.236253 332.452 -164.428)" fill="#0695D7"/>
<rect x="259.158" y="112.32" width="9.11926" height="1.40566" transform="matrix(-0.992707 0.236253 -0.120553 -0.971692 529.967 160.233)" fill="#0695D7"/>
<rect width="3.13377" height="3.13497" rx="1.56688" transform="matrix(0.902585 0.430511 -0.707107 0.707107 254.207 110.632)" fill="#102538"/>
<rect width="21.2091" height="21.2091" rx="3.31392" transform="matrix(0.902585 0.430511 -0.707107 0.707107 164.501 58.4063)" fill="#E7E7E7"/>
<circle r="7.22244" transform="matrix(0.902585 0.430511 -0.707107 0.707107 166.574 70.47)" fill="#D6D6D6"/>
<path d="M168.885 66.8274L165.604 70.108L161.417 68.1106" stroke="#102538" stroke-width="1.69673"/>
<path d="M169.397 69.4945L166.395 72.4969L166.888 75.3663" stroke="#0695D7" stroke-width="1.69673"/>
<rect width="21.2091" height="21.2091" rx="3.31392" transform="matrix(0.902585 0.430511 -0.707107 0.707107 135.188 44.425)" fill="#E7E7E7"/>
<circle r="7.22244" transform="matrix(0.902585 0.430511 -0.707107 0.707107 137.26 56.4888)" fill="#D6D6D6"/>
<path d="M138.423 50.5113C136.984 50.4869 135.517 50.7391 134.168 51.2425C132.82 51.746 131.638 52.483 130.741 53.3795C129.845 54.276 129.265 55.3003 129.061 56.3496C128.857 57.3988 129.035 58.4361 129.578 59.357" stroke="#0695D7" stroke-width="1.32557"/>
<path d="M136.097 62.4661C137.536 62.4905 139.004 62.2383 140.353 61.7349C141.701 61.2314 142.883 60.4944 143.779 59.5979C144.676 58.7015 145.255 57.6771 145.46 56.6278C145.664 55.5786 145.486 54.5414 144.943 53.6204" stroke="#0695D7" stroke-width="1.32557"/>
<circle r="0.994176" transform="matrix(0.707107 -0.707107 0.902585 0.430511 132.759 57.8033)" fill="#102538"/>
<circle r="0.994176" transform="matrix(0.707107 -0.707107 0.902585 0.430511 135.1 55.4598)" fill="#102538"/>
<circle r="0.994176" transform="matrix(0.707107 -0.707107 0.902585 0.430511 137.444 53.1166)" fill="#102538"/>
<circle r="0.662784" transform="matrix(0.707107 -0.707107 0.902585 0.430511 137.074 59.8606)" stroke="#0695D7" stroke-width="0.662784"/>
<circle r="0.662784" transform="matrix(0.707107 -0.707107 0.902585 0.430511 139.418 57.5177)" stroke="#0695D7" stroke-width="0.662784"/>
<circle r="0.662784" transform="matrix(0.707107 -0.707107 0.902585 0.430511 141.762 55.1743)" stroke="#0695D7" stroke-width="0.662784"/>
<rect width="21.2091" height="21.2091" rx="3.31392" transform="matrix(0.902585 0.430511 -0.707107 0.707107 115.505 64.1086)" fill="#E7E7E7"/>
<circle r="7.22244" transform="matrix(0.902585 0.430511 -0.707107 0.707107 117.576 76.1724)" fill="#D6D6D6"/>
<path d="M118.74 70.1949C117.301 70.1704 115.833 70.4226 114.485 70.9261C113.136 71.4295 111.954 72.1665 111.058 73.063C110.161 73.9595 109.582 74.9838 109.377 76.0331C109.173 77.0824 109.352 78.1196 109.894 79.0405" stroke="#0695D7" stroke-width="1.32557"/>
<path d="M116.413 82.1497C117.853 82.1741 119.32 81.9219 120.669 81.4185C122.017 80.915 123.199 80.178 124.096 79.2815C124.992 78.3851 125.572 77.3607 125.776 76.3114C125.98 75.2622 125.802 74.2249 125.259 73.304" stroke="#0695D7" stroke-width="1.32557"/>
<path fill-rule="evenodd" clip-rule="evenodd" d="M120.574 73.1754C120.319 73.0537 120.05 72.9544 119.772 72.8767L119.533 73.2338L119.319 73.5548C118.859 73.4267 118.367 73.3729 117.87 73.3883L117.906 73.0468L117.945 72.6668C117.309 72.6866 116.669 72.7967 116.062 72.9903L116.226 73.3354L116.374 73.6456C115.901 73.7968 115.454 74.012 115.064 74.2862L114.755 74.055L114.411 73.7979C114.174 73.9643 113.953 74.1479 113.753 74.348C113.553 74.5482 113.382 74.7557 113.241 74.9676L113.711 75.0986L114.134 75.2165C113.901 75.5659 113.768 75.9304 113.731 76.2893L113.258 76.304L112.732 76.3204C112.685 76.7804 112.763 77.2331 112.961 77.6509L113.462 77.4909L113.912 77.3469C114.067 77.6728 114.315 77.9719 114.651 78.2234L114.291 78.4759L113.892 78.7563C114.096 78.9087 114.326 79.0473 114.581 79.1691L115.848 77.9018C114.629 77.32 114.415 76.0742 115.371 75.119C116.326 74.1638 118.088 73.8607 119.308 74.442L120.574 73.1754Z" fill="#102538"/>
<path fill-rule="evenodd" clip-rule="evenodd" d="M114.579 79.1693C114.579 79.1693 114.579 79.1693 114.579 79.1693C114.835 79.2911 115.104 79.3906 115.383 79.4683L115.621 79.1112L115.835 78.7897C116.295 78.9178 116.788 78.9717 117.284 78.9564L117.249 79.2982L117.209 79.6783C117.845 79.6584 118.486 79.5484 119.092 79.3548L118.928 79.0097L118.781 78.6994C119.254 78.5483 119.7 78.3331 120.091 78.059L120.4 78.2901L120.744 78.5472C120.98 78.3808 121.201 78.1972 121.401 77.997C121.601 77.7969 121.772 77.5894 121.913 77.3774L121.443 77.2464L121.021 77.1287C121.254 76.7793 121.387 76.4147 121.425 76.0557L121.897 76.041L122.422 76.0246C122.47 75.5646 122.392 75.1119 122.193 74.6942L121.693 74.8541L121.243 74.9978C121.088 74.6718 120.841 74.3727 120.504 74.1211L120.863 73.8691L121.262 73.5888C121.058 73.4362 120.828 73.2975 120.573 73.1756C120.573 73.1756 120.573 73.1756 120.573 73.1756L119.306 74.4423C119.306 74.4424 119.306 74.4425 119.307 74.4425C120.526 75.0242 120.74 76.2703 119.785 77.2257C118.829 78.1811 117.066 78.484 115.847 77.9023C115.847 77.9023 115.846 77.9022 115.846 77.9021L114.579 79.1693Z" fill="#102538"/>
<rect width="21.2091" height="21.2091" rx="3.31392" transform="matrix(0.902585 0.430511 -0.707107 0.707107 144.817 78.09)" fill="#E7E7E7"/>
<path d="M153.408 93.2628C152.398 94.2727 151.028 95.0776 149.472 95.5757C147.917 96.0738 146.244 96.2427 144.667 96.0611C143.089 95.8795 141.678 95.3556 140.611 94.5555C139.543 93.7555 138.868 92.7153 138.671 91.5664C138.474 90.4176 138.763 89.2117 139.502 88.1012C140.241 86.9908 141.396 86.0257 142.823 85.328C144.249 84.6303 145.882 84.2313 147.515 84.1815C149.147 84.1316 150.707 84.4332 151.996 85.0481" stroke="#0695D7" stroke-width="1.32557"/>
<path d="M140.372 87.0453C141.382 86.0355 142.751 85.2306 144.307 84.7325C145.863 84.2344 147.535 84.0655 149.112 84.247C150.69 84.4286 152.101 84.9526 153.169 85.7526C154.236 86.5527 154.911 87.5929 155.108 88.7418C155.306 89.8906 155.017 91.0965 154.278 92.2069C153.539 93.3174 152.383 94.2824 150.957 94.9802C149.53 95.6779 147.898 96.0769 146.265 96.1267C144.632 96.1765 143.072 95.875 141.783 95.2601" stroke="#0695D7" stroke-width="0.662784" stroke-dasharray="1.33 1.33"/>
<path d="M143.923 89.9678L145.01 90.3724C144.805 90.6668 144.733 90.9203 144.793 91.1329C144.855 91.3465 145.044 91.5286 145.36 91.6791C145.694 91.8384 146 91.9033 146.278 91.8738C146.56 91.8434 146.776 91.7541 146.924 91.6059C147.019 91.5107 147.063 91.4128 147.057 91.3124C147.054 91.2112 146.989 91.0936 146.861 90.9594C146.772 90.8685 146.554 90.6778 146.206 90.3874C145.758 90.0141 145.5 89.6953 145.433 89.4308C145.34 89.0589 145.452 88.7136 145.77 88.3951C145.975 88.19 146.24 88.0338 146.565 87.9265C146.894 87.8184 147.244 87.784 147.616 87.8233C147.99 87.8636 148.374 87.978 148.769 88.1664C149.414 88.474 149.788 88.816 149.891 89.1925C149.997 89.57 149.873 89.9476 149.519 90.3252L148.446 89.866C148.609 89.638 148.661 89.444 148.604 89.2841C148.55 89.1235 148.378 88.9735 148.085 88.8341C147.784 88.6904 147.499 88.6263 147.232 88.642C147.06 88.6518 146.922 88.7089 146.817 88.8133C146.722 88.9085 146.692 89.0145 146.727 89.1312C146.772 89.2797 147 89.521 147.411 89.8551C147.823 90.1892 148.098 90.464 148.238 90.6795C148.383 90.8943 148.436 91.121 148.397 91.3595C148.363 91.5974 148.219 91.8435 147.964 92.098C147.733 92.3287 147.436 92.5057 147.071 92.629C146.706 92.7524 146.324 92.7922 145.926 92.7483C145.53 92.7027 145.109 92.5734 144.663 92.3606C144.013 92.0507 143.631 91.6956 143.517 91.2952C143.405 90.8929 143.541 90.4505 143.923 89.9678Z" fill="#102538"/>
<rect width="21.2091" height="21.2091" rx="3.31392" transform="matrix(0.902585 0.430511 -0.707107 0.707107 193.813 72.3879)" fill="#E7E7E7"/>
<rect width="3.13377" height="3.13497" rx="1.56688" transform="matrix(0.902585 0.430511 -0.707107 0.707107 195.58 82.6689)" fill="#0695D7"/>
<path fill-rule="evenodd" clip-rule="evenodd" d="M192.541 86.6635L190.432 88.773L191.964 89.5039L194.074 87.3945L192.541 86.6635ZM198.576 86.6222L201.267 87.9057L202.467 86.705L199.777 85.4215L198.576 86.6222ZM199.229 82.2392L201.337 80.1308L199.805 79.3998L197.696 81.5082L199.229 82.2392ZM193.196 82.2828L190.503 80.9983L189.302 82.1989L191.995 83.4835L193.196 82.2828Z" fill="#102538"/>
<rect width="21.2091" height="21.2091" rx="3.31392" transform="matrix(0.902585 0.430511 -0.707107 0.707107 223.126 86.3694)" fill="#E7E7E7"/>
<path d="M220.762 101.008C219.687 100.495 218.99 99.6686 218.826 98.7104C218.661 97.7522 219.042 96.7407 219.884 95.8985C220.726 95.0562 221.961 94.4522 223.317 94.2192C224.673 93.9862 226.038 94.1434 227.113 94.6562" stroke="#102538" stroke-width="1.32557"/>
<path d="M229.636 95.8592C230.711 96.372 231.407 97.1984 231.572 98.1566C231.736 99.1147 231.356 100.126 230.514 100.968C229.671 101.811 228.436 102.415 227.081 102.648C225.725 102.881 224.359 102.724 223.284 102.211" stroke="#0695D7" stroke-width="1.32557"/>
<ellipse rx="2.96493" ry="2.31974" transform="matrix(0.902585 0.430511 -0.707107 0.707107 225.198 98.433)" fill="#D6D6D6"/>
<rect width="3.13377" height="3.13497" rx="1.56688" transform="matrix(0.902585 0.430511 -0.707107 0.707107 224.893 96.6502)" fill="#0695D7"/>
<rect width="21.2091" height="21.2091" rx="3.31392" transform="matrix(0.902585 0.430511 -0.707107 0.707107 174.131 92.0717)" fill="#E7E7E7"/>
<path d="M167.176 105.983L170.241 102.917L168.844 102.251L169.468 101.626L173.211 103.412L172.587 104.036L171.193 103.371L168.127 106.437L167.176 105.983ZM171.375 107.986L172.928 106.433L173.34 103.473L174.455 104.005L174.103 105.994L176.649 105.052L177.745 105.574L173.871 106.89L172.323 108.438L171.375 107.986ZM174.527 109.49L178.217 105.8L179.744 106.527C180.322 106.803 180.68 107.002 180.819 107.122C181.034 107.306 181.139 107.535 181.135 107.808C181.132 108.08 180.984 108.362 180.69 108.656C180.464 108.882 180.221 109.048 179.961 109.152C179.702 109.256 179.447 109.314 179.195 109.326C178.947 109.336 178.725 109.316 178.53 109.265C178.267 109.192 177.921 109.053 177.49 108.847L176.87 108.551L175.478 109.943L174.527 109.49ZM178.544 106.877L177.497 107.925L178.017 108.173C178.392 108.352 178.662 108.452 178.827 108.474C178.992 108.495 179.151 108.482 179.304 108.433C179.459 108.386 179.591 108.308 179.7 108.198C179.835 108.064 179.895 107.929 179.882 107.794C179.868 107.659 179.795 107.544 179.663 107.448C179.566 107.377 179.346 107.26 179.004 107.097L178.544 106.877Z" fill="#102538"/>
<rect width="7.28951" height="1.69796" transform="matrix(0.707107 -0.707107 0.902585 0.430511 176.531 103.135)" fill="#D6D6D6"/>
<rect width="3.82057" height="1.69796" transform="matrix(0.902585 0.430511 -0.707107 0.707107 176.496 96.3485)" fill="#0695D7"/>
<rect width="3.82057" height="1.69796" transform="matrix(0.902585 0.430511 -0.707107 0.707107 173.685 99.1605)" fill="#102538"/>
<rect width="3.13377" height="3.13497" rx="1.56688" transform="matrix(0.902585 0.430511 -0.707107 0.707107 182.919 100.738)" fill="#FF4758"/>
<rect width="21.2091" height="21.2091" rx="3.31392" transform="matrix(0.902585 0.430511 -0.707107 0.707107 203.442 106.053)" fill="#E7E7E7"/>
<path d="M199.18 119.246L199.873 119.915C199.329 120.25 198.794 120.437 198.268 120.476C197.745 120.515 197.232 120.413 196.726 120.172C196.101 119.874 195.753 119.461 195.685 118.935C195.618 118.408 195.874 117.854 196.455 117.273C197.069 116.659 197.748 116.279 198.492 116.133C199.238 115.985 199.94 116.069 200.6 116.383C201.176 116.658 201.511 117.015 201.604 117.453C201.66 117.713 201.594 118.017 201.406 118.363L200.288 118.09C200.424 117.872 200.458 117.666 200.391 117.47C200.326 117.275 200.168 117.118 199.915 116.997C199.566 116.831 199.184 116.794 198.769 116.886C198.356 116.979 197.93 117.245 197.49 117.685C197.024 118.151 196.799 118.535 196.815 118.835C196.831 119.135 197.01 119.367 197.353 119.531C197.606 119.651 197.886 119.692 198.194 119.653C198.502 119.614 198.831 119.478 199.18 119.246ZM201.195 119.519C201.571 119.143 201.958 118.862 202.356 118.675C202.652 118.538 202.966 118.439 203.299 118.377C203.635 118.317 203.949 118.303 204.242 118.336C204.633 118.379 205.02 118.492 205.404 118.675C206.098 119.006 206.484 119.439 206.562 119.974C206.642 120.511 206.382 121.08 205.781 121.68C205.186 122.276 204.512 122.644 203.762 122.784C203.013 122.923 202.292 122.827 201.6 122.497C200.9 122.163 200.51 121.73 200.43 121.199C200.353 120.666 200.607 120.106 201.195 119.519ZM202.2 119.961C201.782 120.379 201.588 120.755 201.618 121.089C201.649 121.421 201.855 121.678 202.234 121.859C202.613 122.039 203.03 122.081 203.485 121.983C203.944 121.885 204.388 121.622 204.816 121.194C205.239 120.771 205.435 120.399 205.406 120.077C205.378 119.757 205.168 119.503 204.776 119.316C204.384 119.129 203.963 119.084 203.511 119.181C203.062 119.277 202.624 119.536 202.2 119.961ZM204.696 123.881L208.387 120.19L209.312 120.632L208.775 124.016L211.24 121.551L212.123 121.973L208.433 125.663L207.479 125.208L207.986 121.896L205.58 124.302L204.696 123.881Z" fill="#102538"/>
<rect width="7.28951" height="1.69796" transform="matrix(0.707107 -0.707107 0.902585 0.430511 205.842 117.116)" fill="#D6D6D6"/>
<rect width="3.82057" height="1.69796" transform="matrix(0.902585 0.430511 -0.707107 0.707107 205.811 110.331)" fill="#0695D7"/>
<rect width="3.82057" height="1.69796" transform="matrix(0.902585 0.430511 -0.707107 0.707107 202.997 113.142)" fill="#102538"/>
<rect width="3.13377" height="3.13497" rx="1.56688" transform="matrix(0.902585 0.430511 -0.707107 0.707107 212.228 114.719)" fill="#4FCDA6"/>
<rect width="21.2091" height="21.2091" rx="3.31392" transform="matrix(0.902585 0.430511 -0.707107 0.707107 232.756 120.035)" fill="#E7E7E7"/>
<path d="M224.218 133.191L227.878 129.531L228.829 129.984L225.791 133.023L228.156 134.151L227.534 134.772L224.218 133.191ZM229.845 133.183C230.221 132.807 230.608 132.526 231.006 132.339C231.302 132.202 231.616 132.103 231.949 132.041C232.285 131.981 232.599 131.967 232.892 132C233.283 132.043 233.67 132.156 234.054 132.339C234.748 132.67 235.134 133.103 235.212 133.638C235.292 134.175 235.032 134.744 234.431 135.344C233.836 135.94 233.162 136.308 232.412 136.448C231.663 136.587 230.942 136.491 230.25 136.161C229.55 135.827 229.16 135.394 229.08 134.863C229.003 134.33 229.257 133.77 229.845 133.183ZM230.85 133.625C230.432 134.043 230.238 134.419 230.268 134.753C230.299 135.085 230.505 135.342 230.884 135.523C231.263 135.703 231.68 135.745 232.135 135.647C232.594 135.549 233.038 135.286 233.466 134.858C233.889 134.435 234.085 134.063 234.056 133.741C234.028 133.421 233.818 133.167 233.426 132.98C233.034 132.793 232.613 132.748 232.161 132.845C231.712 132.941 231.274 133.2 230.85 133.625ZM237.707 137.621L238.4 138.29C237.856 138.625 237.321 138.812 236.795 138.851C236.273 138.89 235.759 138.788 235.253 138.547C234.628 138.249 234.28 137.837 234.212 137.311C234.145 136.783 234.401 136.229 234.982 135.648C235.596 135.034 236.275 134.654 237.019 134.508C237.765 134.36 238.467 134.444 239.127 134.759C239.703 135.033 240.038 135.39 240.131 135.829C240.187 136.088 240.121 136.392 239.933 136.738L238.816 136.465C238.951 136.247 238.985 136.041 238.918 135.845C238.854 135.651 238.695 135.493 238.442 135.372C238.093 135.206 237.711 135.169 237.296 135.261C236.883 135.354 236.457 135.62 236.017 136.06C235.551 136.527 235.326 136.91 235.342 137.21C235.358 137.51 235.538 137.742 235.88 137.906C236.133 138.026 236.413 138.067 236.721 138.028C237.029 137.989 237.358 137.853 237.707 137.621Z" fill="#102538"/>
<rect width="7.28951" height="1.69796" transform="matrix(0.707107 -0.707107 0.902585 0.430511 235.156 131.097)" fill="#D6D6D6"/>
<rect width="3.82057" height="1.69796" transform="matrix(0.902585 0.430511 -0.707107 0.707107 235.123 124.312)" fill="#0695D7"/>
<rect width="3.82057" height="1.69796" transform="matrix(0.902585 0.430511 -0.707107 0.707107 232.311 127.123)" fill="#102538"/>
<rect width="3.13377" height="3.13497" rx="1.56688" transform="matrix(0.902585 0.430511 -0.707107 0.707107 241.543 128.7)" fill="#FFAC2F"/>
</g>
<defs>
<filter id="filter0_b_263_1793" x="-150" y="-150" width="601" height="561" filterUnits="userSpaceOnUse" color-interpolation-filters="sRGB">
<feFlood flood-opacity="0" result="BackgroundImageFix"/>
<feGaussianBlur in="BackgroundImage" stdDeviation="75"/>
<feComposite in2="SourceAlpha" operator="in" result="effect1_backgroundBlur_263_1793"/>
<feBlend mode="normal" in="SourceGraphic" in2="effect1_backgroundBlur_263_1793" result="shape"/>
</filter>
<filter id="filter1_d_263_1793" x="31" y="-49" width="242" height="109" filterUnits="userSpaceOnUse" color-interpolation-filters="sRGB">
<feFlood flood-opacity="0" result="BackgroundImageFix"/>
<feColorMatrix in="SourceAlpha" type="matrix" values="0 0 0 0 0 0 0 0 0 0 0 0 0 0 0 0 0 0 127 0" result="hardAlpha"/>
<feOffset dx="1" dy="1"/>
<feGaussianBlur stdDeviation="25"/>
<feComposite in2="hardAlpha" operator="out"/>
<feColorMatrix type="matrix" values="0 0 0 0 0.18384 0 0 0 0 0.804121 0 0 0 0 1 0 0 0 1 0"/>
<feBlend mode="normal" in2="BackgroundImageFix" result="effect1_dropShadow_263_1793"/>
<feBlend mode="normal" in="SourceGraphic" in2="effect1_dropShadow_263_1793" result="shape"/>
</filter>
<filter id="filter2_b_263_1793" x="12.3081" y="31.5786" width="277.966" height="197.843" filterUnits="userSpaceOnUse" color-interpolation-filters="sRGB">
<feFlood flood-opacity="0" result="BackgroundImageFix"/>
<feGaussianBlur in="BackgroundImage" stdDeviation="2.96516"/>
<feComposite in2="SourceAlpha" operator="in" result="effect1_backgroundBlur_263_1793"/>
<feBlend mode="normal" in="SourceGraphic" in2="effect1_backgroundBlur_263_1793" result="shape"/>
</filter>
<linearGradient id="paint0_linear_263_1793" x1="4.59861" y1="6.08549" x2="236.021" y2="310.413" gradientUnits="userSpaceOnUse">
<stop stop-color="white" stop-opacity="0.13"/>
<stop offset="1" stop-color="white" stop-opacity="0"/>
</linearGradient>
<linearGradient id="paint1_linear_263_1793" x1="80" y1="0" x2="216.5" y2="9" gradientUnits="userSpaceOnUse">
<stop stop-color="#41C5FE"/>
<stop offset="1" stop-color="#0055D3"/>
</linearGradient>
<clipPath id="clip0_263_1793">
<rect width="301" height="261" rx="20" fill="white"/>
</clipPath>
</defs>
</svg>
