<svg width="119" height="48" viewBox="0 0 119 48" fill="none" xmlns="http://www.w3.org/2000/svg">
<path d="M25.4585 16.6458H17.6252C13.8397 16.6458 10.771 13.5771 10.771 9.79167C10.771 6.00621 13.8397 2.9375 17.6252 2.9375H25.4585V16.6458Z" fill="#E64A19"/>
<path d="M24.4793 30.3541H17.6252C13.8397 30.3541 10.771 27.2854 10.771 23.5C10.771 19.7145 13.8397 16.6458 17.6252 16.6458H24.4793V30.3541Z" fill="#7C4DFF"/>
<path d="M17.6252 44.0625C13.8397 44.0625 10.771 40.9938 10.771 37.2084C10.771 33.4229 13.8397 30.3542 17.6252 30.3542H24.4793V37.2084C24.4793 40.9938 21.4106 44.0625 17.6252 44.0625Z" fill="#66BB6A"/>
<path d="M31.3332 16.6458H24.479V2.9375H31.3332C35.1186 2.9375 38.1873 6.00621 38.1873 9.79167C38.1873 13.5771 35.1186 16.6458 31.3332 16.6458Z" fill="#FF7043"/>
<path d="M31.3332 30.3541C35.1186 30.3541 38.1873 27.2854 38.1873 23.5C38.1873 19.7145 35.1186 16.6458 31.3332 16.6458C27.5477 16.6458 24.479 19.7145 24.479 23.5C24.479 27.2854 27.5477 30.3541 31.3332 30.3541Z" fill="#29B6F6"/>
<g clip-path="url(#clip0_506_919)">
<path d="M108.268 0.345581H81.7316C75.8627 0.345581 71.105 5.25043 71.105 11.3009V37.1951C71.105 43.2456 75.8627 48.1504 81.7316 48.1504H108.268C114.137 48.1504 118.895 43.2456 118.895 37.1951V11.3009C118.895 5.25043 114.137 0.345581 108.268 0.345581Z" fill="#001D23"/>
<path d="M108.268 2.62653H81.7315C77.0845 2.62653 73.3174 6.51017 73.3174 11.3009V37.1951C73.3174 41.9859 77.0845 45.8695 81.7315 45.8695H108.268C112.915 45.8695 116.682 41.9859 116.682 37.1951V11.3009C116.682 6.51017 112.915 2.62653 108.268 2.62653Z" fill="#001D23"/>
<path d="M83.0435 14.0642C83.0435 13.8897 83.0711 13.8361 83.2116 13.8361C84.3643 13.8076 86.5835 13.7495 88.7196 13.7495C94.3958 13.7495 96.3638 16.9941 96.3638 20.152C96.3638 24.8462 92.8504 26.8443 88.5227 26.8443H86.9242V32.5466C86.9242 32.6914 86.8678 32.7747 86.7029 32.7747H83.2393C83.0988 32.7747 83.0435 32.688 83.0435 32.5466V14.0642ZM86.9242 23.2769C87.4021 23.3054 87.7107 23.3054 88.4984 23.3054C90.7186 23.3054 92.4886 22.6097 92.4886 20.2341C92.4886 18.4094 91.2806 17.2507 88.838 17.2507C87.9386 17.2507 87.1786 17.2792 86.9264 17.3088L86.9242 23.2769Z" fill="#01C8FE"/>
<path d="M103.584 21.3061C102.264 21.3061 101.842 21.7988 101.842 22.2915C101.842 22.7842 102.208 23.1605 103.833 23.7981C107.234 25.0731 108.301 26.4348 108.301 28.4911C108.301 31.2441 106.222 33.0689 102.512 33.0689C100.799 33.0689 99.3043 32.7496 98.4381 32.258C98.3785 32.2307 98.328 32.1858 98.2929 32.129C98.2579 32.0722 98.2399 32.006 98.2412 31.9387V28.8093C98.2412 28.6348 98.3518 28.5481 98.4625 28.6348C99.7557 29.4753 101.329 29.7935 102.593 29.7935C103.914 29.7935 104.505 29.4171 104.505 28.8093C104.505 28.2584 104.027 27.8524 102.369 27.2126C99.1937 25.9957 98.1538 24.6044 98.1538 22.5185C98.1538 20.2592 99.9238 18.0866 103.633 18.0866C105.292 18.0866 106.585 18.3147 107.284 18.666C107.35 18.7002 107.404 18.7548 107.439 18.8221C107.475 18.8895 107.489 18.9664 107.48 19.0423V21.9391C107.48 22.1136 107.369 22.2288 107.199 22.1421C106.284 21.654 104.846 21.3061 103.584 21.3061Z" fill="#01C8FE"/>
</g>
<defs>
<clipPath id="clip0_506_919">
<rect width="48" height="48" fill="white" transform="translate(71)"/>
</clipPath>
</defs>
</svg>
