<svg width="49" height="49" viewBox="0 0 49 49" fill="none" xmlns="http://www.w3.org/2000/svg">
<path d="M24.5 49C38.0342 49 49 38.0342 49 24.5C49 10.9658 38.0342 0 24.5 0C10.9658 0 0 10.9658 0 24.5C0 38.0342 10.9658 49 24.5 49ZM11.2108 23.9692L34.8329 14.8613C35.9293 14.4652 36.8868 15.1288 36.5315 16.7866L36.5336 16.7845L32.5115 35.7333C32.2134 37.0767 31.4151 37.4033 30.2983 36.7704L24.1733 32.2563L21.219 35.1024C20.8924 35.429 20.6168 35.7047 19.9838 35.7047L20.4187 29.4715L31.7704 19.2162C32.2645 18.7813 31.6601 18.5363 31.0088 18.9691L16.9805 27.8014L10.9331 25.9149C9.62033 25.4984 9.59175 24.6021 11.2108 23.9692Z" fill="#828194"/>
</svg>
