<svg width="24" height="24" viewBox="0 0 24 24" fill="none" xmlns="http://www.w3.org/2000/svg">
<path fill-rule="evenodd" clip-rule="evenodd" d="M23 12C23 18.0751 18.0751 23 12 23C5.92487 23 1 18.0751 1 12C1 5.92487 5.92487 1 12 1C18.0751 1 23 5.92487 23 12ZM24 12C24 18.6274 18.6274 24 12 24C5.37258 24 0 18.6274 0 12C0 5.37258 5.37258 0 12 0C18.6274 0 24 5.37258 24 12ZM9.64645 8.35355L13.2929 12L9.64645 15.6464L10.3536 16.3536L14.3536 12.3536L14.7071 12L14.3536 11.6464L10.3536 7.64645L9.64645 8.35355Z" fill="url(#paint0_linear_301_6248)"/>
<defs>
<linearGradient id="paint0_linear_301_6248" x1="0" y1="0" x2="25.5151" y2="1.73638" gradientUnits="userSpaceOnUse">
<stop stop-color="#7000FF"/>
<stop offset="0.525409" stop-color="#00FFFF"/>
<stop offset="1" stop-color="#EBFF00"/>
</linearGradient>
</defs>
</svg>
