<svg width="49" height="49" viewBox="0 0 49 49" fill="none" xmlns="http://www.w3.org/2000/svg">
<path fill-rule="evenodd" clip-rule="evenodd" d="M3.44442 3.44442C0 6.88885 0 12.4325 0 23.52V25.48C0 36.5675 0 42.1111 3.44442 45.5556C6.88885 49 12.4325 49 23.52 49H25.48C36.5675 49 42.1111 49 45.5556 45.5556C49 42.1111 49 36.5675 49 25.48V23.52C49 12.4325 49 6.88885 45.5556 3.44442C42.1111 0 36.5675 0 25.48 0H23.52C12.4325 0 6.88885 0 3.44442 3.44442ZM8.26887 14.9043C8.53429 27.6443 14.9043 35.3005 26.0722 35.3005H26.7052V28.0118C30.809 28.4201 33.9121 31.4214 35.1575 35.3005H40.9559C39.3634 29.5022 35.1778 26.2968 32.5645 25.0718C35.1778 23.5609 38.8528 19.8859 39.7307 14.9043H34.4631C33.3198 18.9468 29.931 22.6218 26.7052 22.9689V14.9043H21.4375V29.0326C18.1708 28.2159 14.0468 24.2551 13.863 14.9043H8.26887Z" fill="#828194"/>
</svg>
